<?xml version="1.0" encoding="utf-8"?>
<!-- Generator: Adobe Adobe Illustrator 29.2.0, SVG Export Plug-In . SVG Version: 6.00 Build 0)  -->
<svg version="1.1" id="Layer_1" xmlns="http://www.w3.org/2000/svg" xmlns:xlink="http://www.w3.org/1999/xlink" x="0px" y="0px"
	 width="800px" height="800px" viewBox="0 0 800 800" style="enable-background:new 0 0 800 800;" xml:space="preserve">
<style type="text/css">
	.st0{fill:#502F84;}
	.st1{fill:#0C4161;}
	.st2{fill:#283360;}
</style>
<path class="st0" d="M342.5,651.41c-54-10.42-98.31-32.45-135.84-68.04c-44.07-41.64-73.61-96.62-83.54-155.94
	c-4.84-29.06-5.08-82.57-0.24-109.7c16.95-97.34,89.11-181.85,184.03-215.75c35.84-12.59,72.16-17.19,98.07-12.11
	c20.34,4.11,27.37,7.98,14.29,7.98c-25.19,0-79.43,21.79-106.78,42.62c-44.8,34.63-76.52,82.09-92.26,138.5
	c-4.36,15.74-5.08,25.43-5.08,61.02c-0.24,47.7,2.9,63.93,19.13,101.7c19.13,44.56,58.61,89.59,100.25,114.78
	c22.52,13.56,58.85,26.64,84.99,30.75c37.53,5.81,87.65-1.45,122.28-18.16c19.37-8.96,42.14-23.24,46.98-29.06
	c3.15-3.63,19.61-5.57,19.61-2.42c0,0.73-4.11,9.21-8.97,18.4c-6.78,12.84-13.08,20.34-25.92,31.48
	c-35.59,30.03-71.19,49.16-109.46,59.09c-30.03,7.74-92.99,10.17-121.55,4.84L342.5,651.41L342.5,651.41z"/>
<path class="st1" d="M289.23,709.28C161.62,686.04,63.79,583.6,40.07,447.76c-4.6-26.88-3.15-87.65,2.9-115.02
	c5.81-26.88,19.37-66.11,29.79-85.72c20.82-39.71,61.75-85.72,99.52-111.15c25.43-16.95,63.44-34.63,91.53-42.14
	c22.27-6.05,26.88-6.29,79.43-6.53c42.14,0,58.85,0.97,69.01,3.63l13.32,3.63l-25.43,0.24c-114.78,0.48-220.11,77.01-258.86,188.14
	c-14.77,41.9-18.64,91.28-10.9,137.29c9.93,59.33,39.47,114.29,83.54,155.94c83.78,79.18,211.4,93.96,308.26,35.84
	c18.4-10.9,40.19-27.61,54.48-41.16c9.21-8.96,19.61-13.56,19.61-9.21c0,2.9-16.95,27.61-30.75,44.8
	c-34.38,42.62-92.51,81.36-142.39,95.17c-41.4,11.38-96.62,14.53-133.91,7.74L289.23,709.28L289.23,709.28z"/>
<path class="st2" d="M416.04,471.82c-5-25.47-22.74-58.21-39.56-72.76c-16.38-13.18-27.74-18.65-58.67-27.74
	c-18.2-5-19.11-5.91-6.82-6.36c18.2-0.45,51.4-15.93,67.3-30.92c18.65-17.75,29.11-36.83,36.83-65.03
	c4.09-15.45,6.82-20.47,7.27-13.18c0.45,16.84,11.36,43.65,25.02,63.67c12.27,17.75,57.76,45.47,74.57,45.47
	c11.36,0,0,7.27-21.38,13.18c-21.84,5.91-52.31,31.38-62.76,51.4c-3.64,6.82-9.09,23.2-12.72,36.38l-5.91,23.65L416.04,471.82
	L416.04,471.82L416.04,471.82z"/>
<path class="st0" d="M683.03,655.02c-17.96-3.35-33.42-14.97-40.96-31.02c-3.71-7.79-3.95-9.46-4.31-22.52
	c-0.48-16.29,1.44-23.84,8.74-34.85c5.27-7.91,10.42-12.58,17.73-16.17c5.63-2.75,14.02-3.11,14.85-0.72
	c0.12,0.72-2.27,2.87-5.27,4.79c-6.71,4.31-14.02,13.42-16.53,20.84c-0.96,2.99-1.8,9.46-1.8,14.61c0,12.82,3.23,21.32,11.26,29.23
	c7.91,7.91,15.57,11.62,25.87,12.33c22.4,1.56,43-15.33,48.15-39.53c1.32-6.59,1.68-6.95,4.91-6.95h3.47l-0.48,14.13
	c-0.72,16.41-3.11,23.84-11.02,34.73c-10.06,13.66-23.48,20.48-41.44,21.2C690.57,655.39,684.7,655.27,683.03,655.02L683.03,655.02
	L683.03,655.02z"/>
<path class="st2" d="M685.9,605.2c-8.74-9.1-13.66-15.81-12.58-17.49c0.48-0.72,3.83-1.68,7.55-2.15c4.39-0.48,7.15,0.52,8.26,2.99
	c0.96,2.03,2.03,3.71,2.51,3.71c0.36,0,0.72,4.31,0.72,9.58s-0.12,9.58-0.24,9.58C692.01,611.42,689.26,608.55,685.9,605.2
	L685.9,605.2L685.9,605.2z"/>
<path class="st2" d="M626.73,590.1c0-0.6,0.84-3.83,1.8-7.19c1.44-4.79,2.39-6.23,4.19-6.23c2.63,0,3.11,3.35,1.68,10.66
	c-0.72,3.11-1.32,3.71-4.19,3.71C628.29,591.06,626.73,590.58,626.73,590.1L626.73,590.1L626.73,590.1z"/>
<path class="st1" d="M682.43,674.06c-12.33-2.63-25.99-10.18-35.45-19.52c-13.66-13.78-20.12-27.78-21.08-46.71
	c-0.6-11.5,0.72-21.44,2.63-20.36c1.44,0.84,3.23-6.35,1.8-7.19c-1.91-1.2,7.43-15.57,14.37-22.04
	c7.91-7.19,17.73-12.33,27.31-14.02c9.34-1.8,22.4-0.84,28.99,2.27l5.39,2.39l-8.02-0.6c-5.87-0.48-9.7-0.12-14.37,1.44
	c-3.47,1.2-8.02,2.27-10.18,2.39c-11.02,1.08-24.79,15.21-30.54,31.62c-1.8,5.15-2.27,9.1-1.91,17.49
	c0.36,9.22,0.96,11.97,4.31,19.16c14.25,30.18,51.14,40.36,77.13,21.32c7.55-5.39,15.57-16.17,18.92-25.27
	c1.68-4.19,2.87-10.78,3.35-17.25c0.48-9.22,0.36-10.54-1.44-10.54c-1.56,0-1.91-1.44-1.91-8.86c0-15.09-7.07-31.62-18.2-42.28
	c-15.81-15.09-40.84-20.84-63.96-14.73c-28.26,7.67-52.22,26.83-82.16,66.11c-16.05,20.96-26.47,32.82-32.46,37.13
	c-4.07,2.99-3.71,2.03,3.47-7.43c7.91-10.42,14.02-21.2,26.71-46.47c15.09-30.06,23.95-43.48,37.61-56.77
	c21.56-21.08,47.55-32.46,77.49-34.13c28.5-1.44,50.54,6.59,70.91,25.87c15.81,14.97,24.31,29.95,28.62,51.02
	c5.99,28.62-0.6,57.49-18.56,81.21c-6.23,8.38-19.4,20.12-27.43,24.67C724.23,674.9,702.79,678.49,682.43,674.06L682.43,674.06
	L682.43,674.06z"/>
<path class="st1" d="M690.45,609.75c-3.23-4.31-4.55-6.83-3.71-7.43c0.96-0.6,0.96-1.08-0.12-1.68c-0.96-0.6-0.84-1.44,0.6-2.87
	c1.08-1.08,1.56-1.91,0.96-1.91c-0.48,0-1.68-1.68-2.63-3.59c-1.2-2.99-1.91-3.35-3.23-2.27c-0.96,0.72-2.75,1.08-3.95,0.72
	c-1.32-0.36-2.63,0-2.75,0.6c-0.24,0.72-1.08,0.48-1.91-0.48c-1.08-1.44-0.48-2.99,3.23-8.02c6.59-8.74,17.96-20.48,19.88-20.48
	c1.8,0,16.29,15.21,20.6,21.8l2.99,4.43l-2.87,4.07c-2.39,3.59-20.84,23.6-21.68,23.6c-0.12,0-2.51-2.87-5.39-6.47V609.75
	L690.45,609.75z"/>
</svg>
